#!OML:ASF E:\Steps\Project 1\Capture day 1\Session 2\Subject.ASF
:FULLY-SPECIFIED
:DEGREES
80
root 16.9283 17.97 20.5802 -155.135 -2.38986 176.635
lowerback -31.3054 -2.38376 -7.7193
upperback -0.562588 -0.984533 0.229501
thorax 15.8762 -1.26493 3.95827
lowerneck -4.89313 -0.648733 -0.0911825
upperneck 13.8454 -1.7472 2.70346
head 4.98537 -0.897438 0.73406
rclavicle -7.37988e-015 1.61513e-015
rhumerus -39.5027 -21.0183 -75.0079
rradius 32.115
rwrist -1.53366
rhand -4.8006 -54.676
rfingers 7.12502
rthumb 20.985 -83.5607
lclavicle -7.37988e-015 1.61513e-015
lhumerus -31.2992 6.0254 81.1772
lradius 21.9324
lwrist -5.05591
lhand -21.2988 -13.3705
lfingers 7.12502
lthumb 5.0858 16.5484
rfemur -20.4679 4.2735 20.1478
rtibia 5.85488
rfoot -18.7216 0.233517
rtoes 2.21901
lfemur -22.5921 -9.24811 -22.8981
ltibia 10.2915
lfoot -7.37481 -3.0901
ltoes -3.87374
81
root 16.9254 17.9718 20.5783 -155.233 -2.40477 176.669
lowerback -31.2347 -2.36639 -7.64958
upperback -0.551944 -0.988132 0.230926
thorax 15.858 -1.25918 3.92283
lowerneck -4.83433 -0.607317 -0.172452
upperneck 13.7657 -1.68704 2.78101
head 4.951 -0.867241 0.775465
rclavicle -1.24862e-015 -2.70844e-015
rhumerus -39.4933 -20.919 -75.0749
rradius 32.1764
rwrist -1.56038
rhand -4.75649 -54.7948
rfingers 7.12502
rthumb 21.0274 -83.6748
lclavicle -1.24862e-015 -2.70844e-015
lhumerus -31.2888 6.31652 81.0814
lradius 21.8388
lwrist -5.34967
lhand -21.1084 -13.5439
lfingers 7.12502
lthumb 5.2697 16.3706
rfemur -20.2525 4.2994 20.1687
rtibia 5.63637
rfoot -18.6867 0.156088
rtoes 1.85564
lfemur -22.4953 -9.18588 -22.9032
ltibia 10.3335
lfoot -7.47838 -3.10105
ltoes -5.26598
82
root 16.9288 17.9691 20.5843 -155.095 -2.37547 176.703
lowerback -31.3041 -2.36455 -7.66563
upperback -0.607618 -0.990312 0.248843
thorax 15.8229 -1.26379 3.94776
lowerneck -4.79279 -0.583572 -0.225762
upperneck 13.7214 -1.65108 2.81762
head 4.93031 -0.850177 0.797956
rclavicle -1.0753e-014 6.85807e-015
rhumerus -39.4586 -20.8437 -75.1175
rradius 32.1631
rwrist -1.60328
rhand -4.872 -54.6149
rfingers 7.12502
rthumb 20.9164 -83.5073
lclavicle -1.0753e-014 6.85807e-015
lhumerus -31.3282 6.3204 81.0917
lradius 21.8193
lwrist -5.57037
lhand -21.2981 -13.7601
lfingers 7.12502
lthumb 5.08652 16.1588
rfemur -20.3887 4.20414 20.2467
rtibia 5.53902
rfoot -18.6522 0.296522
rtoes 1.81759
lfemur -22.7281 -8.91391 -22.8648
ltibia 10.4554
lfoot -7.4974 -3.39936
ltoes -4.11582
83
root 16.9234 17.9704 20.5819 -155.203 -2.32918 176.737
lowerback -31.2641 -2.30418 -7.56309
upperback -0.564515 -0.938352 0.228848
thorax 15.8499 -1.23155 3.89422
lowerneck -4.84046 -0.587357 -0.217679
upperneck 13.7349 -1.6533 2.79923
head 4.9424 -0.85067 0.790614
rclavicle 7.59109e-015 -5.29264e-015
rhumerus -39.4315 -20.8123 -75.1461
rradius 32.1993
rwrist -1.69112
rhand -5.07923 -54.4757
rfingers 7.12502
rthumb 20.7173 -83.3899
lclavicle 7.59109e-015 -5.29264e-015
lhumerus -31.3289 6.18621 81.165
lradius 21.8327
lwrist -5.65031
lhand -21.6099 -13.7323
lfingers 7.12502
lthumb 4.78548 16.1936
rfemur -20.3207 4.16604 20.2507
rtibia 5.6418
rfoot -18.6895 0.432072
rtoes 2.22179
lfemur -22.5664 -9.0731 -22.843
ltibia 10.3843
lfoot -7.50347 -3.20131
ltoes -3.71037
84
root 16.9254 17.9668 20.583 -155.135 -2.31428 176.765
lowerback -31.3527 -2.29049 -7.57168
upperback -0.564214 -0.91557 0.249799
thorax 15.8878 -1.22531 3.92969
lowerneck -4.87141 -0.612468 -0.209937
upperneck 13.7444 -1.67891 2.74288
head 4.95051 -0.865056 0.770328
rclavicle -1.043e-014 -1.39149e-015
rhumerus -39.3894 -20.7872 -75.1638
rradius 32.265
rwrist -1.85974
rhand -5.25675 -54.6086
rfingers 7.12502
rthumb 20.5467 -83.5413
lclavicle -1.043e-014 -1.39149e-015
lhumerus -31.3249 6.06445 81.227
lradius 21.8805
lwrist -5.50615
lhand -21.5062 -13.6231
lfingers 7.12502
lthumb 4.88562 16.3006
rfemur -20.471 4.20437 20.3063
rtibia 5.79457
rfoot -18.7245 0.457993
rtoes 2.30733
lfemur -22.6537 -9.03572 -22.8063
ltibia 10.3722
lfoot -7.43642 -3.21686
ltoes -3.36016
85
root 16.922 17.9681 20.5802 -155.26 -2.32442 176.791
lowerback -31.2649 -2.26302 -7.50896
upperback -0.546276 -0.903125 0.254596
thorax 15.8689 -1.21263 3.90902
lowerneck -4.85052 -0.628498 -0.222911
upperneck 13.7987 -1.70225 2.7151
head 4.96391 -0.880548 0.762408
rclavicle -3.57812e-015 6.01324e-015
rhumerus -39.3938 -20.8077 -75.1249
rradius 32.269
rwrist -1.90758
rhand -5.30811 -54.431
rfingers 7.12502
rthumb 20.4974 -83.369
lclavicle -3.57812e-015 6.01324e-015
lhumerus -31.3349 6.09938 81.2209
lradius 21.8831
lwrist -5.39099
lhand -21.3301 -13.4851
lfingers 7.12502
lthumb 5.05562 16.4346
rfemur -20.2873 4.09895 20.3376
rtibia 5.72272
rfoot -18.7063 0.525944
rtoes 1.95825
lfemur -22.4702 -9.18343 -22.784
ltibia 10.2971
lfoot -7.427 -3.03749
ltoes -3.67246
